ISO-10303-21;
HEADER;
/* Generated by software containing ST-Developer
 * from STEP Tools, Inc. (www.steptools.com) 
 */

FILE_DESCRIPTION(
/* description */ (''),
/* implementation_level */ '2;1');

FILE_NAME(
/* name */ 'Prototype_1.step',
/* time_stamp */ '2026-08-10T07:54:51+05:30',
/* author */ (''),
/* organization */ (''),
/* preprocessor_version */ 'ST-DEVELOPER v20.1',
/* originating_system */ 'Autodesk Translation Framework v15.8.0.0',
/* authorisation */ '');

FILE_SCHEMA (('AUTOMOTIVE_DESIGN { 1 0 10303 214 3 1 1 }','MODEL_BASED_INTEGRATED_MANUFACTURING_SCHEMA'));
ENDSEC;

DATA;
#10=MECHANICAL_DESIGN_GEOMETRIC_PRESENTATION_REPRESENTATION('',(#13,#14),
#1155);
#11=SHAPE_REPRESENTATION_RELATIONSHIP('SRR','None',#1162,#12);
#12=ADVANCED_BREP_SHAPE_REPRESENTATION('',(#15,#16),#1154);
#13=STYLED_ITEM('',(#1172),#15);
#14=STYLED_ITEM('',(#1171),#16);
#15=MANIFOLD_SOLID_BREP('Body1',#686);
#16=MANIFOLD_SOLID_BREP('Body2',#687);
#17=ELLIPSE('',#717,5.65685424949238,4.);
#18=ELLIPSE('',#734,5.65685424949238,4.);
#19=CYLINDRICAL_SURFACE('',#716,4.);
#20=CYLINDRICAL_SURFACE('',#726,4.);
#21=CYLINDRICAL_SURFACE('',#727,4.);
#22=CYLINDRICAL_SURFACE('',#732,4.);
#23=CYLINDRICAL_SURFACE('',#733,4.);
#24=CYLINDRICAL_SURFACE('',#743,4.);
#25=CYLINDRICAL_SURFACE('',#744,4.);
#26=CYLINDRICAL_SURFACE('',#745,4.);
#27=CYLINDRICAL_SURFACE('',#746,4.);
#28=CYLINDRICAL_SURFACE('',#747,4.);
#29=CYLINDRICAL_SURFACE('',#748,4.);
#30=CIRCLE('',#713,4.);
#31=CIRCLE('',#714,4.);
#32=CIRCLE('',#715,4.);
#33=CIRCLE('',#719,4.);
#34=CIRCLE('',#720,4.);
#35=CIRCLE('',#721,4.);
#36=CIRCLE('',#723,4.);
#37=CIRCLE('',#724,4.);
#38=CIRCLE('',#725,4.);
#39=CIRCLE('',#729,4.);
#40=CIRCLE('',#730,4.);
#41=CIRCLE('',#731,4.);
#42=CIRCLE('',#736,4.);
#43=CIRCLE('',#737,4.);
#44=CIRCLE('',#738,4.);
#45=CIRCLE('',#740,4.);
#46=CIRCLE('',#741,4.);
#47=CIRCLE('',#742,4.);
#48=SPHERICAL_SURFACE('',#712,4.);
#49=SPHERICAL_SURFACE('',#718,4.);
#50=SPHERICAL_SURFACE('',#722,4.);
#51=SPHERICAL_SURFACE('',#728,4.);
#52=SPHERICAL_SURFACE('',#735,4.);
#53=SPHERICAL_SURFACE('',#739,4.);
#54=FACE_BOUND('',#106,.T.);
#55=FACE_BOUND('',#108,.T.);
#56=FACE_BOUND('',#132,.T.);
#57=FACE_BOUND('',#135,.T.);
#58=FACE_OUTER_BOUND('',#101,.T.);
#59=FACE_OUTER_BOUND('',#102,.T.);
#60=FACE_OUTER_BOUND('',#103,.T.);
#61=FACE_OUTER_BOUND('',#104,.T.);
#62=FACE_OUTER_BOUND('',#105,.T.);
#63=FACE_OUTER_BOUND('',#107,.T.);
#64=FACE_OUTER_BOUND('',#109,.T.);
#65=FACE_OUTER_BOUND('',#110,.T.);
#66=FACE_OUTER_BOUND('',#111,.T.);
#67=FACE_OUTER_BOUND('',#112,.T.);
#68=FACE_OUTER_BOUND('',#113,.T.);
#69=FACE_OUTER_BOUND('',#114,.T.);
#70=FACE_OUTER_BOUND('',#115,.T.);
#71=FACE_OUTER_BOUND('',#116,.T.);
#72=FACE_OUTER_BOUND('',#117,.T.);
#73=FACE_OUTER_BOUND('',#118,.T.);
#74=FACE_OUTER_BOUND('',#119,.T.);
#75=FACE_OUTER_BOUND('',#120,.T.);
#76=FACE_OUTER_BOUND('',#121,.T.);
#77=FACE_OUTER_BOUND('',#122,.T.);
#78=FACE_OUTER_BOUND('',#123,.T.);
#79=FACE_OUTER_BOUND('',#124,.T.);
#80=FACE_OUTER_BOUND('',#125,.T.);
#81=FACE_OUTER_BOUND('',#126,.T.);
#82=FACE_OUTER_BOUND('',#127,.T.);
#83=FACE_OUTER_BOUND('',#128,.T.);
#84=FACE_OUTER_BOUND('',#129,.T.);
#85=FACE_OUTER_BOUND('',#130,.T.);
#86=FACE_OUTER_BOUND('',#131,.T.);
#87=FACE_OUTER_BOUND('',#133,.T.);
#88=FACE_OUTER_BOUND('',#134,.T.);
#89=FACE_OUTER_BOUND('',#136,.T.);
#90=FACE_OUTER_BOUND('',#137,.T.);
#91=FACE_OUTER_BOUND('',#138,.T.);
#92=FACE_OUTER_BOUND('',#139,.T.);
#93=FACE_OUTER_BOUND('',#140,.T.);
#94=FACE_OUTER_BOUND('',#141,.T.);
#95=FACE_OUTER_BOUND('',#142,.T.);
#96=FACE_OUTER_BOUND('',#143,.T.);
#97=FACE_OUTER_BOUND('',#144,.T.);
#98=FACE_OUTER_BOUND('',#145,.T.);
#99=FACE_OUTER_BOUND('',#146,.T.);
#100=FACE_OUTER_BOUND('',#147,.T.);
#101=EDGE_LOOP('',(#435,#436,#437,#438));
#102=EDGE_LOOP('',(#439,#440,#441,#442));
#103=EDGE_LOOP('',(#443,#444,#445,#446));
#104=EDGE_LOOP('',(#447,#448,#449,#450));
#105=EDGE_LOOP('',(#451,#452,#453,#454));
#106=EDGE_LOOP('',(#455,#456,#457,#458));
#107=EDGE_LOOP('',(#459,#460,#461,#462));
#108=EDGE_LOOP('',(#463,#464,#465,#466));
#109=EDGE_LOOP('',(#467,#468,#469,#470));
#110=EDGE_LOOP('',(#471,#472,#473,#474));
#111=EDGE_LOOP('',(#475,#476,#477,#478));
#112=EDGE_LOOP('',(#479,#480,#481,#482));
#113=EDGE_LOOP('',(#483,#484,#485,#486));
#114=EDGE_LOOP('',(#487,#488,#489));
#115=EDGE_LOOP('',(#490,#491,#492,#493));
#116=EDGE_LOOP('',(#494,#495,#496));
#117=EDGE_LOOP('',(#497,#498,#499));
#118=EDGE_LOOP('',(#500,#501,#502,#503));
#119=EDGE_LOOP('',(#504,#505,#506,#507));
#120=EDGE_LOOP('',(#508,#509,#510));
#121=EDGE_LOOP('',(#511,#512,#513,#514));
#122=EDGE_LOOP('',(#515,#516,#517,#518));
#123=EDGE_LOOP('',(#519,#520,#521));
#124=EDGE_LOOP('',(#522,#523,#524));
#125=EDGE_LOOP('',(#525,#526,#527,#528));
#126=EDGE_LOOP('',(#529,#530,#531,#532));
#127=EDGE_LOOP('',(#533,#534,#535,#536));
#128=EDGE_LOOP('',(#537,#538,#539,#540));
#129=EDGE_LOOP('',(#541,#542,#543,#544));
#130=EDGE_LOOP('',(#545,#546,#547,#548));
#131=EDGE_LOOP('',(#549,#550,#551,#552));
#132=EDGE_LOOP('',(#553,#554,#555,#556));
#133=EDGE_LOOP('',(#557,#558,#559,#560));
#134=EDGE_LOOP('',(#561,#562,#563,#564));
#135=EDGE_LOOP('',(#565,#566,#567,#568));
#136=EDGE_LOOP('',(#569,#570,#571,#572));
#137=EDGE_LOOP('',(#573,#574,#575,#576));
#138=EDGE_LOOP('',(#577,#578,#579,#580));
#139=EDGE_LOOP('',(#581,#582,#583,#584));
#140=EDGE_LOOP('',(#585,#586,#587,#588));
#141=EDGE_LOOP('',(#589,#590,#591,#592));
#142=EDGE_LOOP('',(#593,#594,#595,#596));
#143=EDGE_LOOP('',(#597,#598,#599,#600));
#144=EDGE_LOOP('',(#601,#602,#603,#604));
#145=EDGE_LOOP('',(#605,#606,#607,#608));
#146=EDGE_LOOP('',(#609,#610,#611,#612));
#147=EDGE_LOOP('',(#613,#614,#615,#616));
#148=LINE('',#967,#219);
#149=LINE('',#969,#220);
#150=LINE('',#971,#221);
#151=LINE('',#972,#222);
#152=LINE('',#975,#223);
#153=LINE('',#977,#224);
#154=LINE('',#978,#225);
#155=LINE('',#981,#226);
#156=LINE('',#983,#227);
#157=LINE('',#984,#228);
#158=LINE('',#986,#229);
#159=LINE('',#987,#230);
#160=LINE('',#991,#231);
#161=LINE('',#993,#232);
#162=LINE('',#995,#233);
#163=LINE('',#996,#234);
#164=LINE('',#1000,#235);
#165=LINE('',#1002,#236);
#166=LINE('',#1004,#237);
#167=LINE('',#1005,#238);
#168=LINE('',#1008,#239);
#169=LINE('',#1010,#240);
#170=LINE('',#1011,#241);
#171=LINE('',#1014,#242);
#172=LINE('',#1016,#243);
#173=LINE('',#1017,#244);
#174=LINE('',#1020,#245);
#175=LINE('',#1021,#246);
#176=LINE('',#1024,#247);
#177=LINE('',#1025,#248);
#178=LINE('',#1028,#249);
#179=LINE('',#1029,#250);
#180=LINE('',#1039,#251);
#181=LINE('',#1041,#252);
#182=LINE('',#1058,#253);
#183=LINE('',#1059,#254);
#184=LINE('',#1061,#255);
#185=LINE('',#1062,#256);
#186=LINE('',#1071,#257);
#187=LINE('',#1072,#258);
#188=LINE('',#1075,#259);
#189=LINE('',#1077,#260);
#190=LINE('',#1094,#261);
#191=LINE('',#1095,#262);
#192=LINE('',#1097,#263);
#193=LINE('',#1098,#264);
#194=LINE('',#1100,#265);
#195=LINE('',#1101,#266);
#196=LINE('',#1103,#267);
#197=LINE('',#1104,#268);
#198=LINE('',#1106,#269);
#199=LINE('',#1107,#270);
#200=LINE('',#1109,#271);
#201=LINE('',#1110,#272);
#202=LINE('',#1112,#273);
#203=LINE('',#1113,#274);
#204=LINE('',#1117,#275);
#205=LINE('',#1118,#276);
#206=LINE('',#1122,#277);
#207=LINE('',#1129,#278);
#208=LINE('',#1131,#279);
#209=LINE('',#1133,#280);
#210=LINE('',#1134,#281);
#211=LINE('',#1137,#282);
#212=LINE('',#1139,#283);
#213=LINE('',#1140,#284);
#214=LINE('',#1143,#285);
#215=LINE('',#1145,#286);
#216=LINE('',#1146,#287);
#217=LINE('',#1148,#288);
#218=LINE('',#1149,#289);
#219=VECTOR('',#768,10.);
#220=VECTOR('',#769,10.);
#221=VECTOR('',#770,10.);
#222=VECTOR('',#771,10.);
#223=VECTOR('',#774,10.);
#224=VECTOR('',#775,10.);
#225=VECTOR('',#776,10.);
#226=VECTOR('',#779,10.);
#227=VECTOR('',#780,10.);
#228=VECTOR('',#781,10.);
#229=VECTOR('',#784,10.);
#230=VECTOR('',#785,10.);
#231=VECTOR('',#788,10.);
#232=VECTOR('',#789,10.);
#233=VECTOR('',#790,10.);
#234=VECTOR('',#791,10.);
#235=VECTOR('',#794,10.);
#236=VECTOR('',#795,10.);
#237=VECTOR('',#796,10.);
#238=VECTOR('',#797,10.);
#239=VECTOR('',#800,10.);
#240=VECTOR('',#801,10.);
#241=VECTOR('',#802,10.);
#242=VECTOR('',#805,10.);
#243=VECTOR('',#806,10.);
#244=VECTOR('',#807,10.);
#245=VECTOR('',#810,10.);
#246=VECTOR('',#811,10.);
#247=VECTOR('',#814,10.);
#248=VECTOR('',#815,10.);
#249=VECTOR('',#818,10.);
#250=VECTOR('',#819,10.);
#251=VECTOR('',#830,10.);
#252=VECTOR('',#831,10.);
#253=VECTOR('',#852,10.);
#254=VECTOR('',#853,10.);
#255=VECTOR('',#856,10.);
#256=VECTOR('',#857,10.);
#257=VECTOR('',#868,10.);
#258=VECTOR('',#869,10.);
#259=VECTOR('',#872,10.);
#260=VECTOR('',#873,10.);
#261=VECTOR('',#894,10.);
#262=VECTOR('',#895,10.);
#263=VECTOR('',#898,10.);
#264=VECTOR('',#899,10.);
#265=VECTOR('',#902,10.);
#266=VECTOR('',#903,10.);
#267=VECTOR('',#906,10.);
#268=VECTOR('',#907,10.);
#269=VECTOR('',#910,10.);
#270=VECTOR('',#911,10.);
#271=VECTOR('',#914,10.);
#272=VECTOR('',#915,10.);
#273=VECTOR('',#918,10.);
#274=VECTOR('',#919,10.);
#275=VECTOR('',#924,10.);
#276=VECTOR('',#925,10.);
#277=VECTOR('',#932,10.);
#278=VECTOR('',#941,10.);
#279=VECTOR('',#942,10.);
#280=VECTOR('',#943,10.);
#281=VECTOR('',#944,10.);
#282=VECTOR('',#947,10.);
#283=VECTOR('',#948,10.);
#284=VECTOR('',#949,10.);
#285=VECTOR('',#952,10.);
#286=VECTOR('',#953,10.);
#287=VECTOR('',#954,10.);
#288=VECTOR('',#957,10.);
#289=VECTOR('',#958,10.);
#290=VERTEX_POINT('',#965);
#291=VERTEX_POINT('',#966);
#292=VERTEX_POINT('',#968);
#293=VERTEX_POINT('',#970);
#294=VERTEX_POINT('',#974);
#295=VERTEX_POINT('',#976);
#296=VERTEX_POINT('',#980);
#297=VERTEX_POINT('',#982);
#298=VERTEX_POINT('',#989);
#299=VERTEX_POINT('',#990);
#300=VERTEX_POINT('',#992);
#301=VERTEX_POINT('',#994);
#302=VERTEX_POINT('',#998);
#303=VERTEX_POINT('',#999);
#304=VERTEX_POINT('',#1001);
#305=VERTEX_POINT('',#1003);
#306=VERTEX_POINT('',#1007);
#307=VERTEX_POINT('',#1009);
#308=VERTEX_POINT('',#1013);
#309=VERTEX_POINT('',#1015);
#310=VERTEX_POINT('',#1019);
#311=VERTEX_POINT('',#1023);
#312=VERTEX_POINT('',#1027);
#313=VERTEX_POINT('',#1031);
#314=VERTEX_POINT('',#1032);
#315=VERTEX_POINT('',#1034);
#316=VERTEX_POINT('',#1038);
#317=VERTEX_POINT('',#1040);
#318=VERTEX_POINT('',#1044);
#319=VERTEX_POINT('',#1045);
#320=VERTEX_POINT('',#1047);
#321=VERTEX_POINT('',#1051);
#322=VERTEX_POINT('',#1052);
#323=VERTEX_POINT('',#1054);
#324=VERTEX_POINT('',#1064);
#325=VERTEX_POINT('',#1065);
#326=VERTEX_POINT('',#1067);
#327=VERTEX_POINT('',#1074);
#328=VERTEX_POINT('',#1076);
#329=VERTEX_POINT('',#1080);
#330=VERTEX_POINT('',#1081);
#331=VERTEX_POINT('',#1083);
#332=VERTEX_POINT('',#1087);
#333=VERTEX_POINT('',#1088);
#334=VERTEX_POINT('',#1090);
#335=VERTEX_POINT('',#1116);
#336=VERTEX_POINT('',#1127);
#337=VERTEX_POINT('',#1128);
#338=VERTEX_POINT('',#1130);
#339=VERTEX_POINT('',#1132);
#340=VERTEX_POINT('',#1136);
#341=VERTEX_POINT('',#1138);
#342=VERTEX_POINT('',#1142);
#343=VERTEX_POINT('',#1144);
#344=EDGE_CURVE('',#290,#291,#148,.T.);
#345=EDGE_CURVE('',#292,#290,#149,.T.);
#346=EDGE_CURVE('',#293,#292,#150,.T.);
#347=EDGE_CURVE('',#293,#291,#151,.T.);
#348=EDGE_CURVE('',#291,#294,#152,.T.);
#349=EDGE_CURVE('',#295,#293,#153,.T.);
#350=EDGE_CURVE('',#295,#294,#154,.T.);
#351=EDGE_CURVE('',#294,#296,#155,.T.);
#352=EDGE_CURVE('',#297,#295,#156,.T.);
#353=EDGE_CURVE('',#297,#296,#157,.T.);
#354=EDGE_CURVE('',#296,#290,#158,.T.);
#355=EDGE_CURVE('',#292,#297,#159,.T.);
#356=EDGE_CURVE('',#298,#299,#160,.T.);
#357=EDGE_CURVE('',#300,#298,#161,.T.);
#358=EDGE_CURVE('',#301,#300,#162,.T.);
#359=EDGE_CURVE('',#299,#301,#163,.T.);
#360=EDGE_CURVE('',#302,#303,#164,.T.);
#361=EDGE_CURVE('',#304,#302,#165,.T.);
#362=EDGE_CURVE('',#305,#304,#166,.T.);
#363=EDGE_CURVE('',#303,#305,#167,.T.);
#364=EDGE_CURVE('',#301,#306,#168,.T.);
#365=EDGE_CURVE('',#307,#306,#169,.T.);
#366=EDGE_CURVE('',#299,#307,#170,.T.);
#367=EDGE_CURVE('',#308,#302,#171,.T.);
#368=EDGE_CURVE('',#309,#308,#172,.T.);
#369=EDGE_CURVE('',#309,#304,#173,.T.);
#370=EDGE_CURVE('',#300,#310,#174,.T.);
#371=EDGE_CURVE('',#306,#310,#175,.T.);
#372=EDGE_CURVE('',#311,#303,#176,.T.);
#373=EDGE_CURVE('',#308,#311,#177,.T.);
#374=EDGE_CURVE('',#298,#312,#178,.T.);
#375=EDGE_CURVE('',#310,#312,#179,.T.);
#376=EDGE_CURVE('',#313,#314,#30,.F.);
#377=EDGE_CURVE('',#315,#313,#31,.F.);
#378=EDGE_CURVE('',#314,#315,#32,.F.);
#379=EDGE_CURVE('',#316,#314,#180,.T.);
#380=EDGE_CURVE('',#315,#317,#181,.T.);
#381=EDGE_CURVE('',#317,#316,#17,.T.);
#382=EDGE_CURVE('',#318,#319,#33,.F.);
#383=EDGE_CURVE('',#320,#318,#34,.F.);
#384=EDGE_CURVE('',#319,#320,#35,.F.);
#385=EDGE_CURVE('',#321,#322,#36,.F.);
#386=EDGE_CURVE('',#323,#321,#37,.F.);
#387=EDGE_CURVE('',#322,#323,#38,.F.);
#388=EDGE_CURVE('',#321,#313,#182,.T.);
#389=EDGE_CURVE('',#314,#323,#183,.T.);
#390=EDGE_CURVE('',#318,#322,#184,.T.);
#391=EDGE_CURVE('',#323,#320,#185,.T.);
#392=EDGE_CURVE('',#324,#325,#39,.F.);
#393=EDGE_CURVE('',#326,#324,#40,.F.);
#394=EDGE_CURVE('',#325,#326,#41,.F.);
#395=EDGE_CURVE('',#313,#326,#186,.T.);
#396=EDGE_CURVE('',#324,#315,#187,.T.);
#397=EDGE_CURVE('',#327,#324,#188,.T.);
#398=EDGE_CURVE('',#325,#328,#189,.T.);
#399=EDGE_CURVE('',#328,#327,#18,.T.);
#400=EDGE_CURVE('',#329,#330,#42,.F.);
#401=EDGE_CURVE('',#331,#329,#43,.F.);
#402=EDGE_CURVE('',#330,#331,#44,.F.);
#403=EDGE_CURVE('',#332,#333,#45,.F.);
#404=EDGE_CURVE('',#334,#332,#46,.F.);
#405=EDGE_CURVE('',#333,#334,#47,.F.);
#406=EDGE_CURVE('',#332,#321,#190,.T.);
#407=EDGE_CURVE('',#322,#334,#191,.T.);
#408=EDGE_CURVE('',#329,#333,#192,.T.);
#409=EDGE_CURVE('',#334,#331,#193,.T.);
#410=EDGE_CURVE('',#326,#332,#194,.T.);
#411=EDGE_CURVE('',#333,#325,#195,.T.);
#412=EDGE_CURVE('',#319,#330,#196,.T.);
#413=EDGE_CURVE('',#331,#318,#197,.T.);
#414=EDGE_CURVE('',#328,#329,#198,.T.);
#415=EDGE_CURVE('',#330,#327,#199,.T.);
#416=EDGE_CURVE('',#317,#319,#200,.T.);
#417=EDGE_CURVE('',#320,#316,#201,.T.);
#418=EDGE_CURVE('',#317,#327,#202,.T.);
#419=EDGE_CURVE('',#312,#307,#203,.T.);
#420=EDGE_CURVE('',#311,#335,#204,.T.);
#421=EDGE_CURVE('',#335,#309,#205,.T.);
#422=EDGE_CURVE('',#335,#305,#206,.T.);
#423=EDGE_CURVE('',#336,#337,#207,.T.);
#424=EDGE_CURVE('',#336,#338,#208,.T.);
#425=EDGE_CURVE('',#339,#338,#209,.T.);
#426=EDGE_CURVE('',#337,#339,#210,.T.);
#427=EDGE_CURVE('',#337,#340,#211,.T.);
#428=EDGE_CURVE('',#341,#339,#212,.T.);
#429=EDGE_CURVE('',#340,#341,#213,.T.);
#430=EDGE_CURVE('',#340,#342,#214,.T.);
#431=EDGE_CURVE('',#343,#341,#215,.T.);
#432=EDGE_CURVE('',#342,#343,#216,.T.);
#433=EDGE_CURVE('',#342,#336,#217,.T.);
#434=EDGE_CURVE('',#338,#343,#218,.T.);
#435=ORIENTED_EDGE('',*,*,#344,.F.);
#436=ORIENTED_EDGE('',*,*,#345,.F.);
#437=ORIENTED_EDGE('',*,*,#346,.F.);
#438=ORIENTED_EDGE('',*,*,#347,.T.);
#439=ORIENTED_EDGE('',*,*,#348,.F.);
#440=ORIENTED_EDGE('',*,*,#347,.F.);
#441=ORIENTED_EDGE('',*,*,#349,.F.);
#442=ORIENTED_EDGE('',*,*,#350,.T.);
#443=ORIENTED_EDGE('',*,*,#351,.F.);
#444=ORIENTED_EDGE('',*,*,#350,.F.);
#445=ORIENTED_EDGE('',*,*,#352,.F.);
#446=ORIENTED_EDGE('',*,*,#353,.T.);
#447=ORIENTED_EDGE('',*,*,#354,.F.);
#448=ORIENTED_EDGE('',*,*,#353,.F.);
#449=ORIENTED_EDGE('',*,*,#355,.F.);
#450=ORIENTED_EDGE('',*,*,#345,.T.);
#451=ORIENTED_EDGE('',*,*,#356,.F.);
#452=ORIENTED_EDGE('',*,*,#357,.F.);
#453=ORIENTED_EDGE('',*,*,#358,.F.);
#454=ORIENTED_EDGE('',*,*,#359,.F.);
#455=ORIENTED_EDGE('',*,*,#352,.T.);
#456=ORIENTED_EDGE('',*,*,#349,.T.);
#457=ORIENTED_EDGE('',*,*,#346,.T.);
#458=ORIENTED_EDGE('',*,*,#355,.T.);
#459=ORIENTED_EDGE('',*,*,#360,.F.);
#460=ORIENTED_EDGE('',*,*,#361,.F.);
#461=ORIENTED_EDGE('',*,*,#362,.F.);
#462=ORIENTED_EDGE('',*,*,#363,.F.);
#463=ORIENTED_EDGE('',*,*,#351,.T.);
#464=ORIENTED_EDGE('',*,*,#354,.T.);
#465=ORIENTED_EDGE('',*,*,#344,.T.);
#466=ORIENTED_EDGE('',*,*,#348,.T.);
#467=ORIENTED_EDGE('',*,*,#359,.T.);
#468=ORIENTED_EDGE('',*,*,#364,.T.);
#469=ORIENTED_EDGE('',*,*,#365,.F.);
#470=ORIENTED_EDGE('',*,*,#366,.F.);
#471=ORIENTED_EDGE('',*,*,#361,.T.);
#472=ORIENTED_EDGE('',*,*,#367,.F.);
#473=ORIENTED_EDGE('',*,*,#368,.F.);
#474=ORIENTED_EDGE('',*,*,#369,.T.);
#475=ORIENTED_EDGE('',*,*,#358,.T.);
#476=ORIENTED_EDGE('',*,*,#370,.T.);
#477=ORIENTED_EDGE('',*,*,#371,.F.);
#478=ORIENTED_EDGE('',*,*,#364,.F.);
#479=ORIENTED_EDGE('',*,*,#360,.T.);
#480=ORIENTED_EDGE('',*,*,#372,.F.);
#481=ORIENTED_EDGE('',*,*,#373,.F.);
#482=ORIENTED_EDGE('',*,*,#367,.T.);
#483=ORIENTED_EDGE('',*,*,#357,.T.);
#484=ORIENTED_EDGE('',*,*,#374,.T.);
#485=ORIENTED_EDGE('',*,*,#375,.F.);
#486=ORIENTED_EDGE('',*,*,#370,.F.);
#487=ORIENTED_EDGE('',*,*,#376,.F.);
#488=ORIENTED_EDGE('',*,*,#377,.F.);
#489=ORIENTED_EDGE('',*,*,#378,.F.);
#490=ORIENTED_EDGE('',*,*,#379,.T.);
#491=ORIENTED_EDGE('',*,*,#378,.T.);
#492=ORIENTED_EDGE('',*,*,#380,.T.);
#493=ORIENTED_EDGE('',*,*,#381,.T.);
#494=ORIENTED_EDGE('',*,*,#382,.F.);
#495=ORIENTED_EDGE('',*,*,#383,.F.);
#496=ORIENTED_EDGE('',*,*,#384,.F.);
#497=ORIENTED_EDGE('',*,*,#385,.F.);
#498=ORIENTED_EDGE('',*,*,#386,.F.);
#499=ORIENTED_EDGE('',*,*,#387,.F.);
#500=ORIENTED_EDGE('',*,*,#386,.T.);
#501=ORIENTED_EDGE('',*,*,#388,.T.);
#502=ORIENTED_EDGE('',*,*,#376,.T.);
#503=ORIENTED_EDGE('',*,*,#389,.T.);
#504=ORIENTED_EDGE('',*,*,#383,.T.);
#505=ORIENTED_EDGE('',*,*,#390,.T.);
#506=ORIENTED_EDGE('',*,*,#387,.T.);
#507=ORIENTED_EDGE('',*,*,#391,.T.);
#508=ORIENTED_EDGE('',*,*,#392,.F.);
#509=ORIENTED_EDGE('',*,*,#393,.F.);
#510=ORIENTED_EDGE('',*,*,#394,.F.);
#511=ORIENTED_EDGE('',*,*,#377,.T.);
#512=ORIENTED_EDGE('',*,*,#395,.T.);
#513=ORIENTED_EDGE('',*,*,#393,.T.);
#514=ORIENTED_EDGE('',*,*,#396,.T.);
#515=ORIENTED_EDGE('',*,*,#397,.T.);
#516=ORIENTED_EDGE('',*,*,#392,.T.);
#517=ORIENTED_EDGE('',*,*,#398,.T.);
#518=ORIENTED_EDGE('',*,*,#399,.T.);
#519=ORIENTED_EDGE('',*,*,#400,.F.);
#520=ORIENTED_EDGE('',*,*,#401,.F.);
#521=ORIENTED_EDGE('',*,*,#402,.F.);
#522=ORIENTED_EDGE('',*,*,#403,.F.);
#523=ORIENTED_EDGE('',*,*,#404,.F.);
#524=ORIENTED_EDGE('',*,*,#405,.F.);
#525=ORIENTED_EDGE('',*,*,#404,.T.);
#526=ORIENTED_EDGE('',*,*,#406,.T.);
#527=ORIENTED_EDGE('',*,*,#385,.T.);
#528=ORIENTED_EDGE('',*,*,#407,.T.);
#529=ORIENTED_EDGE('',*,*,#401,.T.);
#530=ORIENTED_EDGE('',*,*,#408,.T.);
#531=ORIENTED_EDGE('',*,*,#405,.T.);
#532=ORIENTED_EDGE('',*,*,#409,.T.);
#533=ORIENTED_EDGE('',*,*,#394,.T.);
#534=ORIENTED_EDGE('',*,*,#410,.T.);
#535=ORIENTED_EDGE('',*,*,#403,.T.);
#536=ORIENTED_EDGE('',*,*,#411,.T.);
#537=ORIENTED_EDGE('',*,*,#382,.T.);
#538=ORIENTED_EDGE('',*,*,#412,.T.);
#539=ORIENTED_EDGE('',*,*,#402,.T.);
#540=ORIENTED_EDGE('',*,*,#413,.T.);
#541=ORIENTED_EDGE('',*,*,#414,.T.);
#542=ORIENTED_EDGE('',*,*,#400,.T.);
#543=ORIENTED_EDGE('',*,*,#415,.T.);
#544=ORIENTED_EDGE('',*,*,#399,.F.);
#545=ORIENTED_EDGE('',*,*,#416,.T.);
#546=ORIENTED_EDGE('',*,*,#384,.T.);
#547=ORIENTED_EDGE('',*,*,#417,.T.);
#548=ORIENTED_EDGE('',*,*,#381,.F.);
#549=ORIENTED_EDGE('',*,*,#415,.F.);
#550=ORIENTED_EDGE('',*,*,#412,.F.);
#551=ORIENTED_EDGE('',*,*,#416,.F.);
#552=ORIENTED_EDGE('',*,*,#418,.T.);
#553=ORIENTED_EDGE('',*,*,#375,.T.);
#554=ORIENTED_EDGE('',*,*,#419,.T.);
#555=ORIENTED_EDGE('',*,*,#365,.T.);
#556=ORIENTED_EDGE('',*,*,#371,.T.);
#557=ORIENTED_EDGE('',*,*,#379,.F.);
#558=ORIENTED_EDGE('',*,*,#417,.F.);
#559=ORIENTED_EDGE('',*,*,#391,.F.);
#560=ORIENTED_EDGE('',*,*,#389,.F.);
#561=ORIENTED_EDGE('',*,*,#388,.F.);
#562=ORIENTED_EDGE('',*,*,#406,.F.);
#563=ORIENTED_EDGE('',*,*,#410,.F.);
#564=ORIENTED_EDGE('',*,*,#395,.F.);
#565=ORIENTED_EDGE('',*,*,#420,.T.);
#566=ORIENTED_EDGE('',*,*,#421,.T.);
#567=ORIENTED_EDGE('',*,*,#368,.T.);
#568=ORIENTED_EDGE('',*,*,#373,.T.);
#569=ORIENTED_EDGE('',*,*,#390,.F.);
#570=ORIENTED_EDGE('',*,*,#413,.F.);
#571=ORIENTED_EDGE('',*,*,#409,.F.);
#572=ORIENTED_EDGE('',*,*,#407,.F.);
#573=ORIENTED_EDGE('',*,*,#408,.F.);
#574=ORIENTED_EDGE('',*,*,#414,.F.);
#575=ORIENTED_EDGE('',*,*,#398,.F.);
#576=ORIENTED_EDGE('',*,*,#411,.F.);
#577=ORIENTED_EDGE('',*,*,#363,.T.);
#578=ORIENTED_EDGE('',*,*,#422,.F.);
#579=ORIENTED_EDGE('',*,*,#420,.F.);
#580=ORIENTED_EDGE('',*,*,#372,.T.);
#581=ORIENTED_EDGE('',*,*,#356,.T.);
#582=ORIENTED_EDGE('',*,*,#366,.T.);
#583=ORIENTED_EDGE('',*,*,#419,.F.);
#584=ORIENTED_EDGE('',*,*,#374,.F.);
#585=ORIENTED_EDGE('',*,*,#362,.T.);
#586=ORIENTED_EDGE('',*,*,#369,.F.);
#587=ORIENTED_EDGE('',*,*,#421,.F.);
#588=ORIENTED_EDGE('',*,*,#422,.T.);
#589=ORIENTED_EDGE('',*,*,#397,.F.);
#590=ORIENTED_EDGE('',*,*,#418,.F.);
#591=ORIENTED_EDGE('',*,*,#380,.F.);
#592=ORIENTED_EDGE('',*,*,#396,.F.);
#593=ORIENTED_EDGE('',*,*,#423,.F.);
#594=ORIENTED_EDGE('',*,*,#424,.T.);
#595=ORIENTED_EDGE('',*,*,#425,.F.);
#596=ORIENTED_EDGE('',*,*,#426,.F.);
#597=ORIENTED_EDGE('',*,*,#427,.F.);
#598=ORIENTED_EDGE('',*,*,#426,.T.);
#599=ORIENTED_EDGE('',*,*,#428,.F.);
#600=ORIENTED_EDGE('',*,*,#429,.F.);
#601=ORIENTED_EDGE('',*,*,#430,.F.);
#602=ORIENTED_EDGE('',*,*,#429,.T.);
#603=ORIENTED_EDGE('',*,*,#431,.F.);
#604=ORIENTED_EDGE('',*,*,#432,.F.);
#605=ORIENTED_EDGE('',*,*,#433,.F.);
#606=ORIENTED_EDGE('',*,*,#432,.T.);
#607=ORIENTED_EDGE('',*,*,#434,.F.);
#608=ORIENTED_EDGE('',*,*,#424,.F.);
#609=ORIENTED_EDGE('',*,*,#433,.T.);
#610=ORIENTED_EDGE('',*,*,#423,.T.);
#611=ORIENTED_EDGE('',*,*,#427,.T.);
#612=ORIENTED_EDGE('',*,*,#430,.T.);
#613=ORIENTED_EDGE('',*,*,#434,.T.);
#614=ORIENTED_EDGE('',*,*,#431,.T.);
#615=ORIENTED_EDGE('',*,*,#428,.T.);
#616=ORIENTED_EDGE('',*,*,#425,.T.);
#617=PLANE('',#701);
#618=PLANE('',#702);
#619=PLANE('',#703);
#620=PLANE('',#704);
#621=PLANE('',#705);
#622=PLANE('',#706);
#623=PLANE('',#707);
#624=PLANE('',#708);
#625=PLANE('',#709);
#626=PLANE('',#710);
#627=PLANE('',#711);
#628=PLANE('',#749);
#629=PLANE('',#750);
#630=PLANE('',#751);
#631=PLANE('',#752);
#632=PLANE('',#753);
#633=PLANE('',#754);
#634=PLANE('',#755);
#635=PLANE('',#756);
#636=PLANE('',#757);
#637=PLANE('',#758);
#638=PLANE('',#759);
#639=PLANE('',#760);
#640=PLANE('',#761);
#641=PLANE('',#762);
#642=PLANE('',#763);
#643=ADVANCED_FACE('',(#58),#617,.F.);
#644=ADVANCED_FACE('',(#59),#618,.F.);
#645=ADVANCED_FACE('',(#60),#619,.F.);
#646=ADVANCED_FACE('',(#61),#620,.F.);
#647=ADVANCED_FACE('',(#62,#54),#621,.T.);
#648=ADVANCED_FACE('',(#63,#55),#622,.F.);
#649=ADVANCED_FACE('',(#64),#623,.F.);
#650=ADVANCED_FACE('',(#65),#624,.F.);
#651=ADVANCED_FACE('',(#66),#625,.F.);
#652=ADVANCED_FACE('',(#67),#626,.F.);
#653=ADVANCED_FACE('',(#68),#627,.F.);
#654=ADVANCED_FACE('',(#69),#48,.T.);
#655=ADVANCED_FACE('',(#70),#19,.T.);
#656=ADVANCED_FACE('',(#71),#49,.T.);
#657=ADVANCED_FACE('',(#72),#50,.T.);
#658=ADVANCED_FACE('',(#73),#20,.T.);
#659=ADVANCED_FACE('',(#74),#21,.T.);
#660=ADVANCED_FACE('',(#75),#51,.T.);
#661=ADVANCED_FACE('',(#76),#22,.T.);
#662=ADVANCED_FACE('',(#77),#23,.T.);
#663=ADVANCED_FACE('',(#78),#52,.T.);
#664=ADVANCED_FACE('',(#79),#53,.T.);
#665=ADVANCED_FACE('',(#80),#24,.T.);
#666=ADVANCED_FACE('',(#81),#25,.T.);
#667=ADVANCED_FACE('',(#82),#26,.T.);
#668=ADVANCED_FACE('',(#83),#27,.T.);
#669=ADVANCED_FACE('',(#84),#28,.T.);
#670=ADVANCED_FACE('',(#85),#29,.T.);
#671=ADVANCED_FACE('',(#86,#56),#628,.T.);
#672=ADVANCED_FACE('',(#87),#629,.T.);
#673=ADVANCED_FACE('',(#88,#57),#630,.T.);
#674=ADVANCED_FACE('',(#89),#631,.T.);
#675=ADVANCED_FACE('',(#90),#632,.T.);
#676=ADVANCED_FACE('',(#91),#633,.F.);
#677=ADVANCED_FACE('',(#92),#634,.F.);
#678=ADVANCED_FACE('',(#93),#635,.F.);
#679=ADVANCED_FACE('',(#94),#636,.T.);
#680=ADVANCED_FACE('',(#95),#637,.T.);
#681=ADVANCED_FACE('',(#96),#638,.T.);
#682=ADVANCED_FACE('',(#97),#639,.T.);
#683=ADVANCED_FACE('',(#98),#640,.T.);
#684=ADVANCED_FACE('',(#99),#641,.T.);
#685=ADVANCED_FACE('',(#100),#642,.T.);
#686=CLOSED_SHELL('',(#643,#644,#645,#646,#647,#648,#649,#650,#651,#652,
#653,#654,#655,#656,#657,#658,#659,#660,#661,#662,#663,#664,#665,#666,#667,
#668,#669,#670,#671,#672,#673,#674,#675,#676,#677,#678,#679));
#687=CLOSED_SHELL('',(#680,#681,#682,#683,#684,#685));
#688=DERIVED_UNIT_ELEMENT(#690,1.);
#689=DERIVED_UNIT_ELEMENT(#1157,-3.);
#690=(
MASS_UNIT()
NAMED_UNIT(*)
SI_UNIT(.KILO.,.GRAM.)
);
#691=DERIVED_UNIT((#688,#689));
#692=MEASURE_REPRESENTATION_ITEM('density measure',
POSITIVE_RATIO_MEASURE(7850.),#691);
#693=PROPERTY_DEFINITION_REPRESENTATION(#698,#695);
#694=PROPERTY_DEFINITION_REPRESENTATION(#699,#696);
#695=REPRESENTATION('material name',(#697),#1154);
#696=REPRESENTATION('density',(#692),#1154);
#697=DESCRIPTIVE_REPRESENTATION_ITEM('Steel','Steel');
#698=PROPERTY_DEFINITION('material property','material name',#1164);
#699=PROPERTY_DEFINITION('material property','density of part',#1164);
#700=AXIS2_PLACEMENT_3D('',#963,#764,#765);
#701=AXIS2_PLACEMENT_3D('',#964,#766,#767);
#702=AXIS2_PLACEMENT_3D('',#973,#772,#773);
#703=AXIS2_PLACEMENT_3D('',#979,#777,#778);
#704=AXIS2_PLACEMENT_3D('',#985,#782,#783);
#705=AXIS2_PLACEMENT_3D('',#988,#786,#787);
#706=AXIS2_PLACEMENT_3D('',#997,#792,#793);
#707=AXIS2_PLACEMENT_3D('',#1006,#798,#799);
#708=AXIS2_PLACEMENT_3D('',#1012,#803,#804);
#709=AXIS2_PLACEMENT_3D('',#1018,#808,#809);
#710=AXIS2_PLACEMENT_3D('',#1022,#812,#813);
#711=AXIS2_PLACEMENT_3D('',#1026,#816,#817);
#712=AXIS2_PLACEMENT_3D('',#1030,#820,#821);
#713=AXIS2_PLACEMENT_3D('',#1033,#822,#823);
#714=AXIS2_PLACEMENT_3D('',#1035,#824,#825);
#715=AXIS2_PLACEMENT_3D('',#1036,#826,#827);
#716=AXIS2_PLACEMENT_3D('',#1037,#828,#829);
#717=AXIS2_PLACEMENT_3D('',#1042,#832,#833);
#718=AXIS2_PLACEMENT_3D('',#1043,#834,#835);
#719=AXIS2_PLACEMENT_3D('',#1046,#836,#837);
#720=AXIS2_PLACEMENT_3D('',#1048,#838,#839);
#721=AXIS2_PLACEMENT_3D('',#1049,#840,#841);
#722=AXIS2_PLACEMENT_3D('',#1050,#842,#843);
#723=AXIS2_PLACEMENT_3D('',#1053,#844,#845);
#724=AXIS2_PLACEMENT_3D('',#1055,#846,#847);
#725=AXIS2_PLACEMENT_3D('',#1056,#848,#849);
#726=AXIS2_PLACEMENT_3D('',#1057,#850,#851);
#727=AXIS2_PLACEMENT_3D('',#1060,#854,#855);
#728=AXIS2_PLACEMENT_3D('',#1063,#858,#859);
#729=AXIS2_PLACEMENT_3D('',#1066,#860,#861);
#730=AXIS2_PLACEMENT_3D('',#1068,#862,#863);
#731=AXIS2_PLACEMENT_3D('',#1069,#864,#865);
#732=AXIS2_PLACEMENT_3D('',#1070,#866,#867);
#733=AXIS2_PLACEMENT_3D('',#1073,#870,#871);
#734=AXIS2_PLACEMENT_3D('',#1078,#874,#875);
#735=AXIS2_PLACEMENT_3D('',#1079,#876,#877);
#736=AXIS2_PLACEMENT_3D('',#1082,#878,#879);
#737=AXIS2_PLACEMENT_3D('',#1084,#880,#881);
#738=AXIS2_PLACEMENT_3D('',#1085,#882,#883);
#739=AXIS2_PLACEMENT_3D('',#1086,#884,#885);
#740=AXIS2_PLACEMENT_3D('',#1089,#886,#887);
#741=AXIS2_PLACEMENT_3D('',#1091,#888,#889);
#742=AXIS2_PLACEMENT_3D('',#1092,#890,#891);
#743=AXIS2_PLACEMENT_3D('',#1093,#892,#893);
#744=AXIS2_PLACEMENT_3D('',#1096,#896,#897);
#745=AXIS2_PLACEMENT_3D('',#1099,#900,#901);
#746=AXIS2_PLACEMENT_3D('',#1102,#904,#905);
#747=AXIS2_PLACEMENT_3D('',#1105,#908,#909);
#748=AXIS2_PLACEMENT_3D('',#1108,#912,#913);
#749=AXIS2_PLACEMENT_3D('',#1111,#916,#917);
#750=AXIS2_PLACEMENT_3D('',#1114,#920,#921);
#751=AXIS2_PLACEMENT_3D('',#1115,#922,#923);
#752=AXIS2_PLACEMENT_3D('',#1119,#926,#927);
#753=AXIS2_PLACEMENT_3D('',#1120,#928,#929);
#754=AXIS2_PLACEMENT_3D('',#1121,#930,#931);
#755=AXIS2_PLACEMENT_3D('',#1123,#933,#934);
#756=AXIS2_PLACEMENT_3D('',#1124,#935,#936);
#757=AXIS2_PLACEMENT_3D('',#1125,#937,#938);
#758=AXIS2_PLACEMENT_3D('',#1126,#939,#940);
#759=AXIS2_PLACEMENT_3D('',#1135,#945,#946);
#760=AXIS2_PLACEMENT_3D('',#1141,#950,#951);
#761=AXIS2_PLACEMENT_3D('',#1147,#955,#956);
#762=AXIS2_PLACEMENT_3D('',#1150,#959,#960);
#763=AXIS2_PLACEMENT_3D('',#1151,#961,#962);
#764=DIRECTION('axis',(0.,0.,1.));
#765=DIRECTION('refdir',(1.,0.,0.));
#766=DIRECTION('center_axis',(0.,-1.,0.));
#767=DIRECTION('ref_axis',(1.,0.,0.));
#768=DIRECTION('',(-1.,0.,0.));
#769=DIRECTION('',(0.,0.,1.));
#770=DIRECTION('',(1.,0.,0.));
#771=DIRECTION('',(0.,0.,1.));
#772=DIRECTION('center_axis',(-1.,8.60638003585392E-17,0.));
#773=DIRECTION('ref_axis',(-8.60638003585392E-17,-1.,0.));
#774=DIRECTION('',(8.60638003585392E-17,1.,0.));
#775=DIRECTION('',(-8.60638003585392E-17,-1.,0.));
#776=DIRECTION('',(0.,0.,1.));
#777=DIRECTION('center_axis',(0.,1.,0.));
#778=DIRECTION('ref_axis',(-1.,0.,0.));
#779=DIRECTION('',(1.,0.,0.));
#780=DIRECTION('',(-1.,0.,0.));
#781=DIRECTION('',(0.,0.,1.));
#782=DIRECTION('center_axis',(1.,-8.60638003585392E-17,0.));
#783=DIRECTION('ref_axis',(8.60638003585392E-17,1.,0.));
#784=DIRECTION('',(-8.60638003585392E-17,-1.,0.));
#785=DIRECTION('',(8.60638003585392E-17,1.,0.));
#786=DIRECTION('center_axis',(0.,0.,-1.));
#787=DIRECTION('ref_axis',(-1.,0.,0.));
#788=DIRECTION('',(0.,1.,0.));
#789=DIRECTION('',(1.,0.,0.));
#790=DIRECTION('',(0.,-1.,0.));
#791=DIRECTION('',(-1.,0.,0.));
#792=DIRECTION('center_axis',(0.,0.,-1.));
#793=DIRECTION('ref_axis',(-1.,0.,0.));
#794=DIRECTION('',(0.,-1.,0.));
#795=DIRECTION('',(1.,0.,0.));
#796=DIRECTION('',(0.,1.,0.));
#797=DIRECTION('',(-1.,0.,0.));
#798=DIRECTION('center_axis',(0.,1.,0.));
#799=DIRECTION('ref_axis',(1.,0.,0.));
#800=DIRECTION('',(0.,0.,-1.));
#801=DIRECTION('',(-1.,0.,0.));
#802=DIRECTION('',(0.,0.,-1.));
#803=DIRECTION('center_axis',(0.,1.,0.));
#804=DIRECTION('ref_axis',(1.,0.,0.));
#805=DIRECTION('',(0.,0.,-1.));
#806=DIRECTION('',(1.,0.,0.));
#807=DIRECTION('',(0.,0.,-1.));
#808=DIRECTION('center_axis',(-1.,0.,0.));
#809=DIRECTION('ref_axis',(0.,1.,0.));
#810=DIRECTION('',(0.,0.,-1.));
#811=DIRECTION('',(0.,-1.,0.));
#812=DIRECTION('center_axis',(1.,0.,0.));
#813=DIRECTION('ref_axis',(0.,-1.,0.));
#814=DIRECTION('',(0.,0.,-1.));
#815=DIRECTION('',(0.,-1.,0.));
#816=DIRECTION('center_axis',(0.,-1.,0.));
#817=DIRECTION('ref_axis',(-1.,0.,0.));
#818=DIRECTION('',(0.,0.,-1.));
#819=DIRECTION('',(1.,0.,0.));
#820=DIRECTION('center_axis',(-0.408248290463862,-0.816496580927726,0.408248290463863));
#821=DIRECTION('ref_axis',(-0.577350269189627,0.577350269189625,0.577350269189626));
#822=DIRECTION('center_axis',(-2.22044604925031E-15,1.,0.));
#823=DIRECTION('ref_axis',(0.,0.,1.));
#824=DIRECTION('center_axis',(-1.,0.,0.));
#825=DIRECTION('ref_axis',(0.,1.,0.));
#826=DIRECTION('center_axis',(0.,0.,1.));
#827=DIRECTION('ref_axis',(-1.,0.,0.));
#828=DIRECTION('center_axis',(0.,0.,-1.));
#829=DIRECTION('ref_axis',(-0.707106781186548,0.707106781186548,0.));
#830=DIRECTION('',(0.,0.,1.));
#831=DIRECTION('',(0.,0.,-1.));
#832=DIRECTION('center_axis',(0.,0.707106781186547,0.707106781186548));
#833=DIRECTION('ref_axis',(0.,-0.707106781186548,0.707106781186547));
#834=DIRECTION('center_axis',(-0.816496580927726,0.408248290463863,0.408248290463862));
#835=DIRECTION('ref_axis',(-0.577350269189626,-0.577350269189626,-0.577350269189626));
#836=DIRECTION('center_axis',(-1.,0.,0.));
#837=DIRECTION('ref_axis',(0.,-1.,0.));
#838=DIRECTION('center_axis',(0.,0.,-1.));
#839=DIRECTION('ref_axis',(-1.,0.,0.));
#840=DIRECTION('center_axis',(-1.11022302462516E-15,-1.,0.));
#841=DIRECTION('ref_axis',(0.,0.,-1.));
#842=DIRECTION('center_axis',(-0.816496580927726,0.408248290463863,-0.408248290463862));
#843=DIRECTION('ref_axis',(-0.577350269189626,-0.577350269189626,0.577350269189626));
#844=DIRECTION('center_axis',(-1.,0.,0.));
#845=DIRECTION('ref_axis',(0.,0.,1.));
#846=DIRECTION('center_axis',(0.,-1.,-1.11022302462516E-15));
#847=DIRECTION('ref_axis',(-1.,0.,0.));
#848=DIRECTION('center_axis',(0.,0.,1.));
#849=DIRECTION('ref_axis',(0.,-1.,0.));
#850=DIRECTION('center_axis',(0.,-1.,0.));
#851=DIRECTION('ref_axis',(-0.707106781186548,0.,0.707106781186547));
#852=DIRECTION('',(0.,1.,0.));
#853=DIRECTION('',(0.,-1.,0.));
#854=DIRECTION('center_axis',(0.,0.,-1.));
#855=DIRECTION('ref_axis',(-0.707106781186548,-0.707106781186548,0.));
#856=DIRECTION('',(0.,0.,1.));
#857=DIRECTION('',(0.,0.,-1.));
#858=DIRECTION('center_axis',(0.408248290463863,-0.816496580927726,0.408248290463863));
#859=DIRECTION('ref_axis',(0.577350269189626,0.577350269189626,0.577350269189626));
#860=DIRECTION('center_axis',(0.,0.,1.));
#861=DIRECTION('ref_axis',(0.,1.,0.));
#862=DIRECTION('center_axis',(1.,0.,0.));
#863=DIRECTION('ref_axis',(0.,0.,1.));
#864=DIRECTION('center_axis',(0.,1.,-1.11022302462516E-15));
#865=DIRECTION('ref_axis',(1.,0.,0.));
#866=DIRECTION('center_axis',(-1.,0.,0.));
#867=DIRECTION('ref_axis',(0.,0.707106781186547,0.707106781186548));
#868=DIRECTION('',(1.,0.,0.));
#869=DIRECTION('',(-1.,0.,0.));
#870=DIRECTION('center_axis',(0.,0.,-1.));
#871=DIRECTION('ref_axis',(0.707106781186548,0.707106781186548,0.));
#872=DIRECTION('',(0.,0.,1.));
#873=DIRECTION('',(0.,0.,-1.));
#874=DIRECTION('center_axis',(0.,0.707106781186547,0.707106781186548));
#875=DIRECTION('ref_axis',(0.,-0.707106781186548,0.707106781186547));
#876=DIRECTION('center_axis',(-0.816496580927727,-0.408248290463863,-0.408248290463862));
#877=DIRECTION('ref_axis',(0.577350269189625,-0.577350269189627,-0.577350269189625));
#878=DIRECTION('center_axis',(0.,-1.,2.22044604925031E-15));
#879=DIRECTION('ref_axis',(1.,0.,0.));
#880=DIRECTION('center_axis',(0.,0.,-1.));
#881=DIRECTION('ref_axis',(0.,-1.,0.));
#882=DIRECTION('center_axis',(1.,0.,0.));
#883=DIRECTION('ref_axis',(0.,0.,-1.));
#884=DIRECTION('center_axis',(-0.408248290463862,-0.816496580927726,-0.408248290463863));
#885=DIRECTION('ref_axis',(0.577350269189627,-0.577350269189625,0.577350269189626));
#886=DIRECTION('center_axis',(2.22044604925031E-15,-1.,0.));
#887=DIRECTION('ref_axis',(0.,0.,1.));
#888=DIRECTION('center_axis',(1.,0.,0.));
#889=DIRECTION('ref_axis',(0.,-1.,0.));
#890=DIRECTION('center_axis',(0.,0.,1.));
#891=DIRECTION('ref_axis',(1.,0.,0.));
#892=DIRECTION('center_axis',(1.,0.,0.));
#893=DIRECTION('ref_axis',(0.,-0.707106781186547,0.707106781186548));
#894=DIRECTION('',(-1.,0.,0.));
#895=DIRECTION('',(1.,0.,0.));
#896=DIRECTION('center_axis',(0.,0.,-1.));
#897=DIRECTION('ref_axis',(0.707106781186548,-0.707106781186548,0.));
#898=DIRECTION('',(0.,0.,1.));
#899=DIRECTION('',(0.,0.,-1.));
#900=DIRECTION('center_axis',(0.,1.,0.));
#901=DIRECTION('ref_axis',(0.707106781186548,0.,0.707106781186547));
#902=DIRECTION('',(0.,-1.,0.));
#903=DIRECTION('',(0.,1.,0.));
#904=DIRECTION('center_axis',(-1.,0.,0.));
#905=DIRECTION('ref_axis',(0.,-0.707106781186547,-0.707106781186548));
#906=DIRECTION('',(1.,0.,0.));
#907=DIRECTION('',(-1.,0.,0.));
#908=DIRECTION('center_axis',(0.,-1.,0.));
#909=DIRECTION('ref_axis',(0.707106781186548,0.,-0.707106781186547));
#910=DIRECTION('',(0.,-1.,0.));
#911=DIRECTION('',(0.,1.,0.));
#912=DIRECTION('center_axis',(0.,1.,0.));
#913=DIRECTION('ref_axis',(-0.707106781186548,0.,-0.707106781186547));
#914=DIRECTION('',(0.,-1.,0.));
#915=DIRECTION('',(0.,1.,0.));
#916=DIRECTION('center_axis',(0.,0.,-1.));
#917=DIRECTION('ref_axis',(-1.,0.,0.));
#918=DIRECTION('',(1.,0.,0.));
#919=DIRECTION('',(0.,1.,0.));
#920=DIRECTION('center_axis',(-1.,0.,0.));
#921=DIRECTION('ref_axis',(0.,1.,0.));
#922=DIRECTION('center_axis',(0.,0.,1.));
#923=DIRECTION('ref_axis',(1.,0.,0.));
#924=DIRECTION('',(-1.,0.,0.));
#925=DIRECTION('',(0.,1.,0.));
#926=DIRECTION('center_axis',(0.,-1.,0.));
#927=DIRECTION('ref_axis',(-1.,0.,0.));
#928=DIRECTION('center_axis',(1.,0.,0.));
#929=DIRECTION('ref_axis',(0.,-1.,0.));
#930=DIRECTION('center_axis',(0.,-1.,0.));
#931=DIRECTION('ref_axis',(-1.,0.,0.));
#932=DIRECTION('',(0.,0.,-1.));
#933=DIRECTION('center_axis',(1.,0.,0.));
#934=DIRECTION('ref_axis',(0.,-1.,0.));
#935=DIRECTION('center_axis',(-1.,0.,0.));
#936=DIRECTION('ref_axis',(0.,1.,0.));
#937=DIRECTION('center_axis',(0.,1.,0.));
#938=DIRECTION('ref_axis',(1.,0.,0.));
#939=DIRECTION('center_axis',(0.,1.,0.));
#940=DIRECTION('ref_axis',(1.,0.,0.));
#941=DIRECTION('',(-1.,0.,0.));
#942=DIRECTION('',(0.,0.,-1.));
#943=DIRECTION('',(1.,0.,0.));
#944=DIRECTION('',(0.,0.,-1.));
#945=DIRECTION('center_axis',(-1.,0.,0.));
#946=DIRECTION('ref_axis',(0.,1.,0.));
#947=DIRECTION('',(0.,-1.,0.));
#948=DIRECTION('',(0.,1.,0.));
#949=DIRECTION('',(0.,0.,-1.));
#950=DIRECTION('center_axis',(0.,-1.,0.));
#951=DIRECTION('ref_axis',(-1.,0.,0.));
#952=DIRECTION('',(1.,0.,0.));
#953=DIRECTION('',(-1.,0.,0.));
#954=DIRECTION('',(0.,0.,-1.));
#955=DIRECTION('center_axis',(1.,0.,0.));
#956=DIRECTION('ref_axis',(0.,-1.,0.));
#957=DIRECTION('',(0.,1.,0.));
#958=DIRECTION('',(0.,-1.,0.));
#959=DIRECTION('center_axis',(0.,0.,1.));
#960=DIRECTION('ref_axis',(1.,0.,0.));
#961=DIRECTION('center_axis',(0.,0.,-1.));
#962=DIRECTION('ref_axis',(-1.,0.,0.));
#963=CARTESIAN_POINT('',(0.,0.,0.));
#964=CARTESIAN_POINT('Origin',(-18.6,-25.8,-4.));
#965=CARTESIAN_POINT('',(18.6,-25.8,-3.));
#966=CARTESIAN_POINT('',(-18.6,-25.8,-3.));
#967=CARTESIAN_POINT('',(-9.3,-25.8,-3.));
#968=CARTESIAN_POINT('',(18.6,-25.8,-4.));
#969=CARTESIAN_POINT('',(18.6,-25.8,-4.));
#970=CARTESIAN_POINT('',(-18.6,-25.8,-4.));
#971=CARTESIAN_POINT('',(-9.3,-25.8,-4.));
#972=CARTESIAN_POINT('',(-18.6,-25.8,-4.));
#973=CARTESIAN_POINT('Origin',(-18.6,25.8,-4.));
#974=CARTESIAN_POINT('',(-18.6,25.8,-3.));
#975=CARTESIAN_POINT('',(-18.6,12.9,-3.));
#976=CARTESIAN_POINT('',(-18.6,25.8,-4.));
#977=CARTESIAN_POINT('',(-18.6,12.9,-4.));
#978=CARTESIAN_POINT('',(-18.6,25.8,-4.));
#979=CARTESIAN_POINT('Origin',(18.6,25.8,-4.));
#980=CARTESIAN_POINT('',(18.6,25.8,-3.));
#981=CARTESIAN_POINT('',(9.3,25.8,-3.));
#982=CARTESIAN_POINT('',(18.6,25.8,-4.));
#983=CARTESIAN_POINT('',(9.3,25.8,-4.));
#984=CARTESIAN_POINT('',(18.6,25.8,-4.));
#985=CARTESIAN_POINT('Origin',(18.6,-25.8,-4.));
#986=CARTESIAN_POINT('',(18.6,-12.9,-3.));
#987=CARTESIAN_POINT('',(18.6,-12.9,-4.));
#988=CARTESIAN_POINT('Origin',(0.,0.,-4.));
#989=CARTESIAN_POINT('',(21.6,-28.8,-4.));
#990=CARTESIAN_POINT('',(21.6,28.8,-4.));
#991=CARTESIAN_POINT('',(21.6,14.4,-4.));
#992=CARTESIAN_POINT('',(-21.6,-28.8,-4.));
#993=CARTESIAN_POINT('',(10.8,-28.8,-4.));
#994=CARTESIAN_POINT('',(-21.6,28.8,-4.));
#995=CARTESIAN_POINT('',(-21.6,-14.4,-4.));
#996=CARTESIAN_POINT('',(-10.8,28.8,-4.));
#997=CARTESIAN_POINT('Origin',(0.,0.,-3.));
#998=CARTESIAN_POINT('',(21.6,28.8,-3.));
#999=CARTESIAN_POINT('',(21.6,-28.8,-3.));
#1000=CARTESIAN_POINT('',(21.6,14.4,-3.));
#1001=CARTESIAN_POINT('',(-21.6,28.8,-3.));
#1002=CARTESIAN_POINT('',(-10.8,28.8,-3.));
#1003=CARTESIAN_POINT('',(-21.6,-28.8,-3.));
#1004=CARTESIAN_POINT('',(-21.6,-14.4,-3.));
#1005=CARTESIAN_POINT('',(10.8,-28.8,-3.));
#1006=CARTESIAN_POINT('Origin',(-21.6,28.8,0.));
#1007=CARTESIAN_POINT('',(-21.6,28.8,-13.));
#1008=CARTESIAN_POINT('',(-21.6,28.8,0.));
#1009=CARTESIAN_POINT('',(21.6,28.8,-13.));
#1010=CARTESIAN_POINT('',(-10.8,28.8,-13.));
#1011=CARTESIAN_POINT('',(21.6,28.8,0.));
#1012=CARTESIAN_POINT('Origin',(-21.6,28.8,0.));
#1013=CARTESIAN_POINT('',(21.6,28.8,0.));
#1014=CARTESIAN_POINT('',(21.6,28.8,0.));
#1015=CARTESIAN_POINT('',(-21.6,28.8,0.));
#1016=CARTESIAN_POINT('',(-10.8,28.8,0.));
#1017=CARTESIAN_POINT('',(-21.6,28.8,0.));
#1018=CARTESIAN_POINT('Origin',(-21.6,-28.8,0.));
#1019=CARTESIAN_POINT('',(-21.6,-28.8,-13.));
#1020=CARTESIAN_POINT('',(-21.6,-28.8,0.));
#1021=CARTESIAN_POINT('',(-21.6,-14.4,-13.));
#1022=CARTESIAN_POINT('Origin',(21.6,28.8,0.));
#1023=CARTESIAN_POINT('',(21.6,-28.8,0.));
#1024=CARTESIAN_POINT('',(21.6,-28.8,0.));
#1025=CARTESIAN_POINT('',(21.6,14.4,0.));
#1026=CARTESIAN_POINT('Origin',(21.6,-28.8,0.));
#1027=CARTESIAN_POINT('',(21.6,-28.8,-13.));
#1028=CARTESIAN_POINT('',(21.6,-28.8,0.));
#1029=CARTESIAN_POINT('',(10.8,-28.8,-13.));
#1030=CARTESIAN_POINT('Origin',(-27.6,34.8,-4.));
#1031=CARTESIAN_POINT('',(-27.6,34.8,0.));
#1032=CARTESIAN_POINT('',(-31.6,34.8,-4.));
#1033=CARTESIAN_POINT('Origin',(-27.6,34.8,-4.));
#1034=CARTESIAN_POINT('',(-27.6,38.8,-4.));
#1035=CARTESIAN_POINT('Origin',(-27.6,34.8,-4.));
#1036=CARTESIAN_POINT('Origin',(-27.6,34.8,-4.));
#1037=CARTESIAN_POINT('Origin',(-27.6,34.8,0.));
#1038=CARTESIAN_POINT('',(-31.6,34.8,-9.));
#1039=CARTESIAN_POINT('',(-31.6,34.8,0.));
#1040=CARTESIAN_POINT('',(-27.6,38.8,-13.));
#1041=CARTESIAN_POINT('',(-27.6,38.8,0.));
#1042=CARTESIAN_POINT('Origin',(-27.6,34.8,-9.));
#1043=CARTESIAN_POINT('Origin',(-27.6,-34.8,-9.));
#1044=CARTESIAN_POINT('',(-27.6,-38.8,-9.));
#1045=CARTESIAN_POINT('',(-27.6,-34.8,-13.));
#1046=CARTESIAN_POINT('Origin',(-27.6,-34.8,-9.));
#1047=CARTESIAN_POINT('',(-31.6,-34.8,-9.));
#1048=CARTESIAN_POINT('Origin',(-27.6,-34.8,-9.));
#1049=CARTESIAN_POINT('Origin',(-27.6,-34.8,-9.));
#1050=CARTESIAN_POINT('Origin',(-27.6,-34.8,-4.));
#1051=CARTESIAN_POINT('',(-27.6,-34.8,0.));
#1052=CARTESIAN_POINT('',(-27.6,-38.8,-4.));
#1053=CARTESIAN_POINT('Origin',(-27.6,-34.8,-4.));
#1054=CARTESIAN_POINT('',(-31.6,-34.8,-4.));
#1055=CARTESIAN_POINT('Origin',(-27.6,-34.8,-4.));
#1056=CARTESIAN_POINT('Origin',(-27.6,-34.8,-4.));
#1057=CARTESIAN_POINT('Origin',(-27.6,-19.4,-4.));
#1058=CARTESIAN_POINT('',(-27.6,-19.4,0.));
#1059=CARTESIAN_POINT('',(-31.6,-19.4,-4.));
#1060=CARTESIAN_POINT('Origin',(-27.6,-34.8,0.));
#1061=CARTESIAN_POINT('',(-27.6,-38.8,0.));
#1062=CARTESIAN_POINT('',(-31.6,-34.8,0.));
#1063=CARTESIAN_POINT('Origin',(27.6,34.8,-4.));
#1064=CARTESIAN_POINT('',(27.6,38.8,-4.));
#1065=CARTESIAN_POINT('',(31.6,34.8,-4.));
#1066=CARTESIAN_POINT('Origin',(27.6,34.8,-4.));
#1067=CARTESIAN_POINT('',(27.6,34.8,0.));
#1068=CARTESIAN_POINT('Origin',(27.6,34.8,-4.));
#1069=CARTESIAN_POINT('Origin',(27.6,34.8,-4.));
#1070=CARTESIAN_POINT('Origin',(-15.8,34.8,-4.));
#1071=CARTESIAN_POINT('',(-15.8,34.8,0.));
#1072=CARTESIAN_POINT('',(-15.8,38.8,-4.));
#1073=CARTESIAN_POINT('Origin',(27.6,34.8,0.));
#1074=CARTESIAN_POINT('',(27.6,38.8,-13.));
#1075=CARTESIAN_POINT('',(27.6,38.8,0.));
#1076=CARTESIAN_POINT('',(31.6,34.8,-9.));
#1077=CARTESIAN_POINT('',(31.6,34.8,0.));
#1078=CARTESIAN_POINT('Origin',(27.6,34.8,-9.));
#1079=CARTESIAN_POINT('Origin',(27.6,-34.8,-9.));
#1080=CARTESIAN_POINT('',(31.6,-34.8,-9.));
#1081=CARTESIAN_POINT('',(27.6,-34.8,-13.));
#1082=CARTESIAN_POINT('Origin',(27.6,-34.8,-9.));
#1083=CARTESIAN_POINT('',(27.6,-38.8,-9.));
#1084=CARTESIAN_POINT('Origin',(27.6,-34.8,-9.));
#1085=CARTESIAN_POINT('Origin',(27.6,-34.8,-9.));
#1086=CARTESIAN_POINT('Origin',(27.6,-34.8,-4.));
#1087=CARTESIAN_POINT('',(27.6,-34.8,0.));
#1088=CARTESIAN_POINT('',(31.6,-34.8,-4.));
#1089=CARTESIAN_POINT('Origin',(27.6,-34.8,-4.));
#1090=CARTESIAN_POINT('',(27.6,-38.8,-4.));
#1091=CARTESIAN_POINT('Origin',(27.6,-34.8,-4.));
#1092=CARTESIAN_POINT('Origin',(27.6,-34.8,-4.));
#1093=CARTESIAN_POINT('Origin',(15.8,-34.8,-4.));
#1094=CARTESIAN_POINT('',(15.8,-34.8,0.));
#1095=CARTESIAN_POINT('',(15.8,-38.8,-4.));
#1096=CARTESIAN_POINT('Origin',(27.6,-34.8,0.));
#1097=CARTESIAN_POINT('',(31.6,-34.8,0.));
#1098=CARTESIAN_POINT('',(27.6,-38.8,0.));
#1099=CARTESIAN_POINT('Origin',(27.6,19.4,-4.));
#1100=CARTESIAN_POINT('',(27.6,19.4,0.));
#1101=CARTESIAN_POINT('',(31.6,19.4,-4.));
#1102=CARTESIAN_POINT('Origin',(15.8,-34.8,-9.));
#1103=CARTESIAN_POINT('',(15.8,-34.8,-13.));
#1104=CARTESIAN_POINT('',(15.8,-38.8,-9.));
#1105=CARTESIAN_POINT('Origin',(27.6,19.4,-9.));
#1106=CARTESIAN_POINT('',(31.6,19.4,-9.));
#1107=CARTESIAN_POINT('',(27.6,19.4,-13.));
#1108=CARTESIAN_POINT('Origin',(-27.6,-19.4,-9.));
#1109=CARTESIAN_POINT('',(-27.6,-19.4,-13.));
#1110=CARTESIAN_POINT('',(-31.6,-19.4,-9.));
#1111=CARTESIAN_POINT('Origin',(0.,0.,-13.));
#1112=CARTESIAN_POINT('',(31.6,38.8,-13.));
#1113=CARTESIAN_POINT('',(21.6,14.4,-13.));
#1114=CARTESIAN_POINT('Origin',(-31.6,-38.8,0.));
#1115=CARTESIAN_POINT('Origin',(0.,0.,0.));
#1116=CARTESIAN_POINT('',(-21.6,-28.8,0.));
#1117=CARTESIAN_POINT('',(10.8,-28.8,0.));
#1118=CARTESIAN_POINT('',(-21.6,-14.4,0.));
#1119=CARTESIAN_POINT('Origin',(31.6,-38.8,0.));
#1120=CARTESIAN_POINT('Origin',(31.6,38.8,0.));
#1121=CARTESIAN_POINT('Origin',(21.6,-28.8,0.));
#1122=CARTESIAN_POINT('',(-21.6,-28.8,0.));
#1123=CARTESIAN_POINT('Origin',(21.6,28.8,0.));
#1124=CARTESIAN_POINT('Origin',(-21.6,-28.8,0.));
#1125=CARTESIAN_POINT('Origin',(-31.6,38.8,0.));
#1126=CARTESIAN_POINT('Origin',(-21.6,28.8,0.));
#1127=CARTESIAN_POINT('',(21.6,28.8,0.));
#1128=CARTESIAN_POINT('',(-21.6,28.8,0.));
#1129=CARTESIAN_POINT('',(21.6,28.8,0.));
#1130=CARTESIAN_POINT('',(21.6,28.8,-3.));
#1131=CARTESIAN_POINT('',(21.6,28.8,0.));
#1132=CARTESIAN_POINT('',(-21.6,28.8,-3.));
#1133=CARTESIAN_POINT('',(21.6,28.8,-3.));
#1134=CARTESIAN_POINT('',(-21.6,28.8,0.));
#1135=CARTESIAN_POINT('Origin',(-21.6,-28.8,0.));
#1136=CARTESIAN_POINT('',(-21.6,-28.8,0.));
#1137=CARTESIAN_POINT('',(-21.6,28.8,0.));
#1138=CARTESIAN_POINT('',(-21.6,-28.8,-3.));
#1139=CARTESIAN_POINT('',(-21.6,28.8,-3.));
#1140=CARTESIAN_POINT('',(-21.6,-28.8,0.));
#1141=CARTESIAN_POINT('Origin',(21.6,-28.8,0.));
#1142=CARTESIAN_POINT('',(21.6,-28.8,0.));
#1143=CARTESIAN_POINT('',(-21.6,-28.8,0.));
#1144=CARTESIAN_POINT('',(21.6,-28.8,-3.));
#1145=CARTESIAN_POINT('',(-21.6,-28.8,-3.));
#1146=CARTESIAN_POINT('',(21.6,-28.8,0.));
#1147=CARTESIAN_POINT('Origin',(21.6,28.8,0.));
#1148=CARTESIAN_POINT('',(21.6,-28.8,0.));
#1149=CARTESIAN_POINT('',(21.6,-28.8,-3.));
#1150=CARTESIAN_POINT('Origin',(0.,0.,0.));
#1151=CARTESIAN_POINT('Origin',(0.,0.,-3.));
#1152=UNCERTAINTY_MEASURE_WITH_UNIT(LENGTH_MEASURE(0.01),#1156,
'DISTANCE_ACCURACY_VALUE',
'Maximum model space distance between geometric entities at asserted c
onnectivities');
#1153=UNCERTAINTY_MEASURE_WITH_UNIT(LENGTH_MEASURE(0.01),#1156,
'DISTANCE_ACCURACY_VALUE',
'Maximum model space distance between geometric entities at asserted c
onnectivities');
#1154=(
GEOMETRIC_REPRESENTATION_CONTEXT(3)
GLOBAL_UNCERTAINTY_ASSIGNED_CONTEXT((#1152))
GLOBAL_UNIT_ASSIGNED_CONTEXT((#1156,#1158,#1159))
REPRESENTATION_CONTEXT('','3D')
);
#1155=(
GEOMETRIC_REPRESENTATION_CONTEXT(3)
GLOBAL_UNCERTAINTY_ASSIGNED_CONTEXT((#1153))
GLOBAL_UNIT_ASSIGNED_CONTEXT((#1156,#1158,#1159))
REPRESENTATION_CONTEXT('','3D')
);
#1156=(
LENGTH_UNIT()
NAMED_UNIT(*)
SI_UNIT(.MILLI.,.METRE.)
);
#1157=(
LENGTH_UNIT()
NAMED_UNIT(*)
SI_UNIT($,.METRE.)
);
#1158=(
NAMED_UNIT(*)
PLANE_ANGLE_UNIT()
SI_UNIT($,.RADIAN.)
);
#1159=(
NAMED_UNIT(*)
SI_UNIT($,.STERADIAN.)
SOLID_ANGLE_UNIT()
);
#1160=SHAPE_DEFINITION_REPRESENTATION(#1161,#1162);
#1161=PRODUCT_DEFINITION_SHAPE('',$,#1164);
#1162=SHAPE_REPRESENTATION('',(#700),#1154);
#1163=PRODUCT_DEFINITION_CONTEXT('part definition',#1168,'design');
#1164=PRODUCT_DEFINITION('Initial POC','Initial POC v1',#1165,#1163);
#1165=PRODUCT_DEFINITION_FORMATION('',$,#1170);
#1166=PRODUCT_RELATED_PRODUCT_CATEGORY('Initial POC v1',
'Initial POC v1',(#1170));
#1167=APPLICATION_PROTOCOL_DEFINITION('international standard',
'automotive_design',2009,#1168);
#1168=APPLICATION_CONTEXT(
'Core Data for Automotive Mechanical Design Process');
#1169=PRODUCT_CONTEXT('part definition',#1168,'mechanical');
#1170=PRODUCT('Initial POC','Initial POC v1',$,(#1169));
#1171=PRESENTATION_STYLE_ASSIGNMENT((#1173));
#1172=PRESENTATION_STYLE_ASSIGNMENT((#1174));
#1173=SURFACE_STYLE_USAGE(.BOTH.,#1175);
#1174=SURFACE_STYLE_USAGE(.BOTH.,#1176);
#1175=SURFACE_SIDE_STYLE('',(#1177));
#1176=SURFACE_SIDE_STYLE('',(#1178));
#1177=SURFACE_STYLE_FILL_AREA(#1179);
#1178=SURFACE_STYLE_FILL_AREA(#1180);
#1179=FILL_AREA_STYLE('Paint - Enamel Glossy (Black)',(#1181));
#1180=FILL_AREA_STYLE('Paint - Enamel Glossy (White)',(#1182));
#1181=FILL_AREA_STYLE_COLOUR('Paint - Enamel Glossy (Black)',#1183);
#1182=FILL_AREA_STYLE_COLOUR('Paint - Enamel Glossy (White)',#1184);
#1183=COLOUR_RGB('Paint - Enamel Glossy (Black)',0.0980392156862745,0.0980392156862745,
0.0980392156862745);
#1184=COLOUR_RGB('Paint - Enamel Glossy (White)',0.964705882352941,0.964705882352941,
0.952941176470588);
ENDSEC;
END-ISO-10303-21;
